<svg version="1" xmlns="http://www.w3.org/2000/svg" width="826.667" height="826.667" viewBox="0 0 620.000000 620.000000"><path d="M136.5 54.1c-38.1 26-72.7 63.1-94.6 101.3-5.4 9.3-16.4 32-19.8 40.6-3.3 8.4-10.7 30.6-11.5 34.5-.3 1.1-1.4 5.8-2.5 10.5-2.4 10-2.6 11.4-4.7 24.5C1 281 .5 288.9.5 310.5c.1 18.7.7 31.2 2 39.5.3 1.9 1.2 7.8 2.1 13 8.4 53.2 33.6 107.1 69.9 149.5 16 18.7 41.8 41.8 61.3 54.9l8.4 5.6h331.5l8.3-5.5c62.6-42 109.5-109.5 127.1-183.1 1.6-6.7 3.1-13.9 3.4-16.1.3-2.1.8-4.4 1.1-5.1.2-.8.7-3.7 1-6.5.3-2.9.7-5.7.9-6.4 2.6-8 2.6-60.8 0-78.3-.2-1.4-.6-4.5-.9-7-.5-3.7-2.5-13.9-6.2-30.8-.2-1.2-2-7.4-3.9-13.8-11.6-38.2-31.4-74.8-58-107.3-17.2-21.1-43.4-44.6-66.2-59.7l-8.2-5.4H145.5l-9 6.1zm215.8 68.8l4.8.1-.6 3.7c-.3 2.1-1.2 7.8-2.1 12.8-.8 4.9-1.7 10.1-1.9 11.5-.2 1.4-1.1 6.8-2 12-.9 5.2-1.8 10.6-2 12-.3 1.4-1.6 9.1-3 17.2s-2.7 16.4-3 18.5c-.3 2.1-.9 5.1-1.2 6.8-.3 1.6-.7 3.9-.9 5-.2 1.1-.5 3.1-.8 4.5-.3 1.4-.7 4.1-1 6-.3 1.9-1.6 9.7-2.9 17.2l-2.3 13.8H371c23.6 0 38.8.4 40.6 1 4.2 1.6 6.9 5.7 6.8 10.5-.1 3.3-3.3 9.3-18.8 35-10.2 17-19 31.7-19.6 32.5-.9 1.4-10.7 17.7-16 26.6-8.5 14.2-22.3 37.1-23.1 38.4-1.8 2.9-38.8 64.6-46.6 77.7l-7.8 13.3h-23.6l.6-4.3c.5-4.5 1-7.5 2.5-15.2.5-2.8 1.2-7.3 1.5-10 .4-2.8.8-5.7 1.1-6.6.3-.9.7-3.2.9-5 .4-3 3.8-24 5-30.9.4-2.1 3.5-20.9 5.1-30.5.2-1.7.6-4.1.9-5.5.3-1.4.7-4.1 1-6 2-12.3 3.5-20.9 4.1-24.3l.6-2.7h-38.3c-36.7 0-38.3-.1-41.5-2-3.7-2.4-6-7.7-4.9-11.8.4-1.5 6.6-12.6 13.8-24.7 7.3-12.1 13.6-22.8 14.2-23.8 2-3.5 82.8-138.3 85-141.7 1.2-1.9 5.9-9.7 10.4-17.2 8.9-15 8.4-14.6 18.6-14.1 2.2.1 6.2.2 8.8.2z"/></svg>